<svg width="514" height="265" viewBox="0 0 514 265" fill="none" xmlns="http://www.w3.org/2000/svg">
<path fill-rule="evenodd" clip-rule="evenodd" d="M107.52 41.8C107.52 37.8 110.886 34.5 114.966 34.5H373.638C377.718 34.5 381.084 37.8 381.084 41.8V215.3C381.084 219.3 377.718 222.6 373.638 222.6H114.966C110.886 222.6 107.52 219.3 107.52 215.3V41.8V41.8Z" fill="#FAFAFA" stroke="#8257E5" stroke-width="2.0814"/>
<path fill-rule="evenodd" clip-rule="evenodd" d="M124.248 53.7C124.248 52 125.676 50.6 127.41 50.6H360.786C362.52 50.6 363.948 52 363.948 53.7V183C363.948 184.7 362.52 186.1 360.786 186.1H127.41C125.676 186.1 124.248 184.7 124.248 183V53.7Z" fill="#FAFAFA" stroke="#8257E5" stroke-width="2.0814"/>
<path fill-rule="evenodd" clip-rule="evenodd" d="M224.82 222.6H264.09L266.742 256.2H222.27L224.82 222.6Z" fill="#FAFAFA" stroke="#8257E5" stroke-width="2.0814"/>
<path fill-rule="evenodd" clip-rule="evenodd" d="M205.746 263.4V259.9C205.746 257.8 207.48 256.1 209.622 256.1H279.186C281.328 256.1 283.062 257.8 283.062 259.9V263.4C283.062 263.5 282.96 263.7 282.756 263.7H206.052C205.95 263.7 205.746 263.6 205.746 263.4Z" fill="#FAFAFA" stroke="#8257E5" stroke-width="2.0814"/>
<path d="M249.244 206.569C249.677 203.953 247.865 201.487 245.196 201.062C242.527 200.638 240.012 202.415 239.578 205.031C239.145 207.648 240.958 210.114 243.627 210.538C246.296 210.963 248.811 209.186 249.244 206.569Z" stroke="#8257E5" stroke-width="2.0814"/>
<path fill-rule="evenodd" clip-rule="evenodd" d="M97.422 256.2V259.8C97.422 262.8 99.87 265.3 103.032 265.3H315.498C318.558 265.3 321.108 262.9 321.108 259.8V256.2C321.108 256.1 319.272 254.4 319.068 254.4H99.768C99.564 254.3 99.666 254.3 97.422 256.2Z" fill="#FAFAFA" stroke="#8257E5" stroke-width="2.0814"/>
<path fill-rule="evenodd" clip-rule="evenodd" d="M162.498 15H285.204V130.3C285.204 134.3 281.838 137.6 277.758 137.6H169.944C165.864 137.6 162.498 134.3 162.498 130.3V15V15Z" fill="#FAFAFA" stroke="#8257E5" stroke-width="2.0814"/>
<path fill-rule="evenodd" clip-rule="evenodd" d="M162.498 9.20002C162.498 5.20002 165.864 1.90002 169.944 1.90002H277.758C281.838 1.90002 285.204 5.20002 285.204 9.20002V17H162.498V9.20002Z" fill="#FAFAFA" stroke="#8257E5" stroke-width="2.0814"/>
<path d="M173.922 11.8C175.218 11.8 176.268 10.7703 176.268 9.50001C176.268 8.22976 175.218 7.20001 173.922 7.20001C172.626 7.20001 171.576 8.22976 171.576 9.50001C171.576 10.7703 172.626 11.8 173.922 11.8Z" fill="#8257E5" stroke="#8257E5" stroke-miterlimit="10"/>
<path d="M181.878 11.8C183.174 11.8 184.224 10.7703 184.224 9.50001C184.224 8.22976 183.174 7.20001 181.878 7.20001C180.582 7.20001 179.532 8.22976 179.532 9.50001C179.532 10.7703 180.582 11.8 181.878 11.8Z" fill="#8257E5" stroke="#8257E5" stroke-miterlimit="10"/>
<path d="M189.834 11.8C191.13 11.8 192.18 10.7703 192.18 9.50001C192.18 8.22976 191.13 7.20001 189.834 7.20001C188.538 7.20001 187.488 8.22976 187.488 9.50001C187.488 10.7703 188.538 11.8 189.834 11.8Z" fill="#8257E5" stroke="#8257E5" stroke-miterlimit="10"/>
<path fill-rule="evenodd" clip-rule="evenodd" d="M178.41 90.9H181.062C181.674 90.9 182.082 91.4 182.082 91.9C182.082 92.5 181.572 92.9 181.062 92.9H178.41C177.798 92.9 177.39 92.4 177.39 91.9C177.39 91.4 177.798 90.9 178.41 90.9Z" fill="#8257E5" stroke="#8257E5" stroke-miterlimit="10"/>
<path fill-rule="evenodd" clip-rule="evenodd" d="M178.41 38.9H181.062C181.674 38.9 182.082 39.4 182.082 39.9C182.082 40.5 181.572 40.9 181.062 40.9H178.41C177.798 40.9 177.39 40.4 177.39 39.9C177.39 39.4 177.798 38.9 178.41 38.9Z" fill="#8257E5" stroke="#8257E5" stroke-miterlimit="10"/>
<path fill-rule="evenodd" clip-rule="evenodd" d="M186.366 38.9H193.506C194.118 38.9 194.526 39.4 194.526 39.9C194.526 40.5 194.016 40.9 193.506 40.9H186.366C185.754 40.9 185.346 40.4 185.346 39.9C185.346 39.4 185.856 38.9 186.366 38.9Z" fill="#8257E5" stroke="#8257E5" stroke-miterlimit="10"/>
<path fill-rule="evenodd" clip-rule="evenodd" d="M198.3 38.9H205.44C206.052 38.9 206.46 39.4 206.46 39.9C206.46 40.5 205.95 40.9 205.44 40.9H198.3C197.688 40.9 197.28 40.4 197.28 39.9C197.28 39.4 197.79 38.9 198.3 38.9Z" fill="#8257E5" stroke="#8257E5" stroke-miterlimit="10"/>
<path fill-rule="evenodd" clip-rule="evenodd" d="M210.336 38.9H223.596C224.208 38.9 224.616 39.4 224.616 39.9C224.616 40.5 224.106 40.9 223.596 40.9H210.336C209.724 40.9 209.316 40.4 209.316 39.9C209.214 39.4 209.724 38.9 210.336 38.9Z" fill="#8257E5" stroke="#8257E5" stroke-miterlimit="10"/>
<path fill-rule="evenodd" clip-rule="evenodd" d="M228.39 38.9H248.076C248.688 38.9 249.096 39.4 249.096 39.9C249.096 40.5 248.586 40.9 248.076 40.9H228.39C227.778 40.9 227.37 40.4 227.37 39.9C227.268 39.4 227.778 38.9 228.39 38.9Z" fill="#8257E5" stroke="#8257E5" stroke-miterlimit="10"/>
<path fill-rule="evenodd" clip-rule="evenodd" d="M178.41 49.3H181.062C181.674 49.3 182.082 49.8 182.082 50.3C182.082 50.9 181.572 51.3 181.062 51.3H178.41C177.798 51.3 177.39 50.8 177.39 50.3C177.39 49.8 177.798 49.3 178.41 49.3Z" fill="#8257E5" stroke="#8257E5" stroke-miterlimit="10"/>
<path fill-rule="evenodd" clip-rule="evenodd" d="M178.41 59.7H181.062C181.674 59.7 182.082 60.2 182.082 60.7C182.082 61.3 181.572 61.7 181.062 61.7H178.41C177.798 61.7 177.39 61.2 177.39 60.7C177.39 60.2 177.798 59.7 178.41 59.7Z" fill="#8257E5" stroke="#8257E5" stroke-miterlimit="10"/>
<path fill-rule="evenodd" clip-rule="evenodd" d="M178.41 70.1H181.062C181.674 70.1 182.082 70.6 182.082 71.1C182.082 71.7 181.572 72.1 181.062 72.1H178.41C177.798 72.1 177.39 71.6 177.39 71.1C177.39 70.6 177.798 70.1 178.41 70.1Z" fill="#8257E5" stroke="#8257E5" stroke-miterlimit="10"/>
<path fill-rule="evenodd" clip-rule="evenodd" d="M178.41 80.5H181.062C181.674 80.5 182.082 81 182.082 81.5C182.082 82.1 181.572 82.5 181.062 82.5H178.41C177.798 82.5 177.39 82 177.39 81.5C177.39 81 177.798 80.5 178.41 80.5Z" fill="#8257E5" stroke="#8257E5" stroke-miterlimit="10"/>
<path fill-rule="evenodd" clip-rule="evenodd" d="M178.41 101.3H181.062C181.674 101.3 182.082 101.8 182.082 102.3C182.082 102.9 181.572 103.3 181.062 103.3H178.41C177.798 103.3 177.39 102.8 177.39 102.3C177.39 101.8 177.798 101.3 178.41 101.3Z" fill="#8257E5" stroke="#8257E5" stroke-miterlimit="10"/>
<path fill-rule="evenodd" clip-rule="evenodd" d="M178.41 111.8H181.062C181.674 111.8 182.082 112.3 182.082 112.8C182.082 113.4 181.572 113.8 181.062 113.8H178.41C177.798 113.8 177.39 113.3 177.39 112.8C177.39 112.2 177.798 111.8 178.41 111.8Z" fill="#8257E5" stroke="#8257E5" stroke-miterlimit="10"/>
<path fill-rule="evenodd" clip-rule="evenodd" d="M186.366 49.3H202.788C203.4 49.3 203.808 49.8 203.808 50.3C203.808 50.9 203.298 51.3 202.788 51.3H186.366C185.754 51.3 185.346 50.8 185.346 50.3C185.346 49.8 185.856 49.3 186.366 49.3Z" fill="#8257E5" stroke="#8257E5" stroke-miterlimit="10"/>
<path fill-rule="evenodd" clip-rule="evenodd" d="M207.684 49.3H237.468C238.08 49.3 238.488 49.8 238.488 50.3C238.488 50.9 237.978 51.3 237.468 51.3H207.684C207.072 51.3 206.664 50.8 206.664 50.3C206.562 49.8 207.072 49.3 207.684 49.3Z" fill="#8257E5" stroke="#8257E5" stroke-miterlimit="10"/>
<path fill-rule="evenodd" clip-rule="evenodd" d="M242.16 49.3H253.278C253.89 49.3 254.298 49.8 254.298 50.3C254.298 50.9 253.788 51.3 253.278 51.3H242.16C241.548 51.3 241.14 50.8 241.14 50.3C241.14 49.8 241.548 49.3 242.16 49.3Z" fill="#8257E5" stroke="#8257E5" stroke-miterlimit="10"/>
<path fill-rule="evenodd" clip-rule="evenodd" d="M186.366 59.7H197.484C198.096 59.7 198.504 60.2 198.504 60.7C198.504 61.3 197.994 61.7 197.484 61.7H186.366C185.754 61.7 185.346 61.2 185.346 60.7C185.346 60.2 185.856 59.7 186.366 59.7Z" fill="#8257E5" stroke="#8257E5" stroke-miterlimit="10"/>
<path fill-rule="evenodd" clip-rule="evenodd" d="M202.278 59.7H213.396C214.008 59.7 214.416 60.2 214.416 60.7C214.416 61.3 213.906 61.7 213.396 61.7H202.278C201.666 61.7 201.258 61.2 201.258 60.7C201.258 60.2 201.768 59.7 202.278 59.7Z" fill="#8257E5" stroke="#8257E5" stroke-miterlimit="10"/>
<path fill-rule="evenodd" clip-rule="evenodd" d="M218.292 59.7H224.106C224.718 59.7 225.126 60.2 225.126 60.7C225.126 61.3 224.616 61.7 224.106 61.7H218.292C217.68 61.7 217.272 61.2 217.272 60.7C217.17 60.2 217.68 59.7 218.292 59.7Z" fill="#8257E5" stroke="#8257E5" stroke-miterlimit="10"/>
<path fill-rule="evenodd" clip-rule="evenodd" d="M186.366 70.1H210.846C211.458 70.1 211.866 70.6 211.866 71.1C211.866 71.7 211.356 72.1 210.846 72.1H186.366C185.754 72.1 185.346 71.6 185.346 71.1C185.346 70.6 185.856 70.1 186.366 70.1Z" fill="#8257E5" stroke="#8257E5" stroke-miterlimit="10"/>
<path fill-rule="evenodd" clip-rule="evenodd" d="M215.64 70.1H232.062C232.674 70.1 233.082 70.6 233.082 71.1C233.082 71.7 232.572 72.1 232.062 72.1H215.64C215.028 72.1 214.62 71.6 214.62 71.1C214.518 70.6 215.028 70.1 215.64 70.1Z" fill="#8257E5" stroke="#8257E5" stroke-miterlimit="10"/>
<path fill-rule="evenodd" clip-rule="evenodd" d="M186.366 80.5H210.846C211.458 80.5 211.866 81 211.866 81.5C211.866 82.1 211.356 82.5 210.846 82.5H186.366C185.754 82.5 185.346 82 185.346 81.5C185.346 81 185.856 80.5 186.366 80.5Z" fill="#8257E5" stroke="#8257E5" stroke-miterlimit="10"/>
<path fill-rule="evenodd" clip-rule="evenodd" d="M215.64 80.5H248.076C248.688 80.5 249.096 81 249.096 81.5C249.096 82.1 248.586 82.5 248.076 82.5H215.64C215.028 82.5 214.62 82 214.62 81.5C214.518 81 215.028 80.5 215.64 80.5Z" fill="#8257E5" stroke="#8257E5" stroke-miterlimit="10"/>
<path fill-rule="evenodd" clip-rule="evenodd" d="M186.366 90.9H202.788C203.4 90.9 203.808 91.4 203.808 91.9C203.808 92.5 203.298 92.9 202.788 92.9H186.366C185.754 92.9 185.346 92.4 185.346 91.9C185.346 91.4 185.856 90.9 186.366 90.9Z" fill="#8257E5" stroke="#8257E5" stroke-miterlimit="10"/>
<path fill-rule="evenodd" clip-rule="evenodd" d="M207.684 90.9H224.106C224.718 90.9 225.126 91.4 225.126 91.9C225.126 92.5 224.616 92.9 224.106 92.9H207.684C207.072 92.9 206.664 92.4 206.664 91.9C206.562 91.4 207.072 90.9 207.684 90.9Z" fill="#8257E5" stroke="#8257E5" stroke-miterlimit="10"/>
<path fill-rule="evenodd" clip-rule="evenodd" d="M228.9 90.9H237.366C237.978 90.9 238.386 91.4 238.386 91.9C238.386 92.5 237.876 92.9 237.366 92.9H228.9C228.288 92.9 227.88 92.4 227.88 91.9C227.778 91.4 228.288 90.9 228.9 90.9Z" fill="#8257E5" stroke="#8257E5" stroke-miterlimit="10"/>
<path fill-rule="evenodd" clip-rule="evenodd" d="M186.366 101.3H218.802C219.414 101.3 219.822 101.8 219.822 102.3C219.822 102.9 219.312 103.3 218.802 103.3H186.366C185.754 103.3 185.346 102.8 185.346 102.3C185.346 101.8 185.856 101.3 186.366 101.3Z" fill="#8257E5" stroke="#8257E5" stroke-miterlimit="10"/>
<path fill-rule="evenodd" clip-rule="evenodd" d="M186.366 111.8H200.136C200.748 111.8 201.156 112.3 201.156 112.8C201.156 113.4 200.646 113.8 200.136 113.8H186.366C185.754 113.8 185.346 113.3 185.346 112.8C185.346 112.2 185.856 111.8 186.366 111.8Z" fill="#8257E5" stroke="#8257E5" stroke-miterlimit="10"/>
<path d="M511.043 241.997C512.451 233.492 506.56 225.479 497.885 224.099C489.211 222.719 481.037 228.494 479.629 236.999C478.222 245.503 484.112 253.516 492.787 254.897C501.462 256.277 509.635 250.501 511.043 241.997Z" fill="#FAFAFA" stroke="#8257E5" stroke-width="2.0814"/>
<path d="M504.498 240.956C505.32 235.995 501.883 231.32 496.823 230.515C491.763 229.71 486.995 233.079 486.174 238.04C485.353 243.001 488.789 247.675 493.849 248.48C498.909 249.286 503.677 245.917 504.498 240.956Z" fill="#FAFAFA" stroke="#8257E5" stroke-width="2.0814"/>
<path fill-rule="evenodd" clip-rule="evenodd" d="M450.75 214.5C450.138 214.5 449.73 215 449.73 215.5V259.2C449.73 262.1 452.076 264.4 455.034 264.4H491.652C494.61 264.4 496.956 262.1 496.956 259.2V215.5C496.956 214.9 496.446 214.5 495.936 214.5H450.75Z" fill="#FAFAFA" stroke="#8257E5" stroke-width="2.0814"/>
<path fill-rule="evenodd" clip-rule="evenodd" d="M396.996 264.2C405.768 264.2 412.908 264.2 412.908 264.2C412.908 255.6 405.768 248.6 396.996 248.6C388.224 248.6 381.084 255.6 381.084 264.2C381.084 264.2 388.224 264.2 396.996 264.2Z" fill="#FAFAFA" stroke="#8257E5" stroke-width="2.0814"/>
<path fill-rule="evenodd" clip-rule="evenodd" d="M396.996 248.1C397.608 248.1 398.016 248.6 398.016 249.1V250.4C398.016 251 397.506 251.4 396.996 251.4C396.384 251.4 395.976 250.9 395.976 250.4V249.1C395.874 248.6 396.384 248.1 396.996 248.1Z" fill="#8257E5" stroke="#8257E5" stroke-miterlimit="10"/>
<path fill-rule="evenodd" clip-rule="evenodd" d="M16.842 234C8.172 234 1.134 240.9 1.134 249.4C1.134 257.9 8.172 264.8 16.842 264.8H81.102C82.02 264.8 82.734 264.1 82.734 263.2V260.8C82.734 259.7 81.918 258.8 80.796 258.7C73.452 258.2 69.576 255 69.576 249.4C69.576 243.8 73.452 240.6 80.796 240.1C81.918 240 82.734 239.1 82.734 238V235.6C82.734 234.7 82.02 234 81.102 234H16.842Z" fill="#FAFAFA" stroke="#8257E5" stroke-width="2.0814"/>
<path d="M81.918 259.3C81.918 259.6 81.714 259.8 81.408 259.8H73.86H16.638C10.722 259.8 6.03 255.1 6.03 249.4C6.03 243.7 10.722 239 16.638 239H73.962H81.51C81.816 239 82.02 239.2 82.02 239.5" stroke="#8257E5" stroke-width="2.0814"/>
<path fill-rule="evenodd" clip-rule="evenodd" d="M15.516 245H69.168C69.78 245 70.188 245.5 70.188 246C70.188 246.6 69.678 247 69.168 247H15.516C14.904 247 14.496 246.5 14.496 246C14.496 245.4 15.006 245 15.516 245Z" fill="#8257E5" stroke="#8257E5" stroke-miterlimit="10"/>
<path fill-rule="evenodd" clip-rule="evenodd" d="M15.516 251.5H69.168C69.78 251.5 70.188 252 70.188 252.5C70.188 253.1 69.678 253.5 69.168 253.5H15.516C14.904 253.5 14.496 253 14.496 252.5C14.496 251.9 15.006 251.5 15.516 251.5Z" fill="#8257E5" stroke="#8257E5" stroke-miterlimit="10"/>
</svg>
