<svg width="176" height="176" viewBox="0 0 176 176" fill="none" xmlns="http://www.w3.org/2000/svg">
<g filter="url(#filter0_d)">
<g clip-path="url(#clip0)">
<rect x="4" width="168" height="168" rx="20" fill="#DD512A"/>
<g clip-path="url(#clip1)">
<path d="M145.238 -77C140.532 -77 137.026 -73.165 137.444 -68.479L177.115 376.499C177.533 381.186 181.583 386.051 186.119 387.31L354.463 434.052C358.998 435.311 366.417 435.311 370.953 434.055L539.809 387.236C544.344 385.978 548.399 381.114 548.816 376.428L588.553 -68.479C588.974 -73.165 585.464 -77 580.758 -77H145.238ZM504.068 25.054C503.693 29.234 503.045 36.491 502.627 41.178L501.582 52.853C501.161 57.538 500.562 64.239 500.246 67.742C499.931 71.246 499.632 74.113 499.577 74.113C499.524 74.113 495.629 74.113 490.924 74.113H371.554C366.848 74.113 362.959 74.113 362.908 74.113C362.857 74.113 358.964 74.113 354.258 74.113H291.39C286.684 74.113 283.178 77.948 283.596 82.634L287.263 123.624C287.681 128.309 291.875 132.145 296.58 132.145H354.259C358.965 132.145 362.857 132.145 362.909 132.145C362.961 132.145 366.85 132.145 371.555 132.145H470.697C475.403 132.145 482.685 132.145 486.879 132.145C491.07 132.145 494.191 135.566 493.811 139.746C493.429 143.926 492.777 151.185 492.36 155.87L480.569 288.02C480.148 292.707 479.616 298.694 479.387 301.326C479.153 303.956 475.253 307.137 470.718 308.395L371.244 335.977C366.709 337.233 362.942 338.273 362.871 338.289C362.801 338.304 359.035 337.286 354.498 336.029L254.918 308.397C250.383 307.139 246.331 302.275 245.914 297.588L239.504 225.643C239.086 220.956 242.596 217.121 247.302 217.121H256.39C261.096 217.121 268.796 217.121 273.501 217.121H287.053C291.759 217.121 295.949 220.956 296.37 225.643L298.884 253.807C299.302 258.494 303.359 263.331 307.903 264.558L354.482 277.137C359.023 278.364 362.757 279.368 362.778 279.368C362.799 279.368 366.531 278.362 371.074 277.135L417.737 264.526C422.278 263.299 426.339 258.46 426.76 253.775L431.82 197.348C432.241 192.661 428.735 188.826 424.029 188.826H371.555C366.849 188.826 362.96 188.826 362.909 188.826C362.858 188.826 358.965 188.826 354.259 188.826H244.765C240.059 188.826 235.869 184.99 235.451 180.305L223.035 41.179C222.617 36.492 221.969 29.237 221.594 25.055C221.223 20.875 224.766 17.454 229.472 17.454H354.259C358.965 17.454 362.857 17.454 362.909 17.454C362.961 17.454 366.85 17.454 371.555 17.454H496.191C500.896 17.452 504.441 20.872 504.068 25.054Z" fill="#DD512A"/>
</g>
<mask id="path-3-inside-1" fill="white">
<path d="M57.8245 142.887C54.9924 137.516 47.2775 106.618 39.0744 25.9923L137.219 27.4571L132.825 123.258L57.8245 142.887Z"/>
</mask>
<path d="M39.0744 25.9923L41.7905 -155.987L-162.691 -159.039L-141.991 44.4146L39.0744 25.9923ZM57.8245 142.887L-103.167 227.774L-35.8085 355.523L103.905 318.957L57.8245 142.887ZM132.825 123.258L178.906 299.328L308.495 265.412L314.634 131.598L132.825 123.258ZM137.219 27.4571L319.028 35.797L327.63 -151.721L139.936 -154.523L137.219 27.4571ZM-141.991 44.4146C-137.581 87.7602 -133.039 120.434 -128.687 144.74C-126.528 156.797 -124.169 168.188 -121.527 178.571C-120.376 183.093 -115.049 205.239 -103.167 227.774L218.816 58.001C222.706 65.3777 225.204 71.4107 226.471 74.613C227.884 78.1839 228.866 81.0456 229.456 82.8413C230.611 86.3582 231.172 88.5756 231.234 88.8186C231.377 89.3777 230.763 86.9976 229.614 80.5803C227.35 67.9377 223.933 44.8498 220.14 7.56995L-141.991 44.4146ZM103.905 318.957L178.906 299.328L86.7442 -52.8113L11.7437 -33.1823L103.905 318.957ZM314.634 131.598L319.028 35.797L-44.5893 19.1173L-48.9839 114.919L314.634 131.598ZM139.936 -154.523L41.7905 -155.987L36.3583 207.972L134.503 209.437L139.936 -154.523Z" fill="white" mask="url(#path-3-inside-1)"/>
<path d="M24.2026 9C22.8239 9 21.7967 10.1235 21.9192 11.4964L33.5416 141.862C33.6641 143.235 34.8506 144.66 36.1795 145.029L85.4993 158.723C86.828 159.092 89.0015 159.092 90.3304 158.724L139.8 145.007C141.129 144.639 142.317 143.214 142.439 141.841L154.081 11.4964C154.204 10.1235 153.176 9 151.797 9H24.2026ZM129.329 38.8988C129.219 40.1234 129.029 42.2495 128.907 43.6227L128.601 47.0431C128.478 48.4157 128.302 50.3789 128.209 51.4051C128.117 52.4317 128.03 53.2716 128.013 53.2716C127.998 53.2716 126.857 53.2716 125.478 53.2716H90.5065C89.1278 53.2716 87.9884 53.2716 87.9735 53.2716C87.9585 53.2716 86.818 53.2716 85.4393 53.2716H67.0208C65.6421 53.2716 64.6149 54.3952 64.7374 55.768L65.8117 67.7769C65.9342 69.1495 67.1629 70.2733 68.5413 70.2733H85.4396C86.8183 70.2733 87.9585 70.2733 87.9738 70.2733C87.989 70.2733 89.1284 70.2733 90.5068 70.2733H119.552C120.931 70.2733 123.065 70.2733 124.293 70.2733C125.521 70.2733 126.436 71.2756 126.324 72.5002C126.212 73.7248 126.021 75.8515 125.899 77.224L122.445 115.94C122.321 117.313 122.165 119.067 122.098 119.838C122.03 120.609 120.887 121.541 119.559 121.909L90.4157 129.99C89.087 130.358 87.9834 130.663 87.9626 130.667C87.9421 130.672 86.8388 130.374 85.5096 130.005L56.3356 121.91C55.007 121.541 53.8199 120.116 53.6977 118.743L51.8197 97.6655C51.6973 96.2923 52.7256 95.1688 54.1043 95.1688H56.7668C58.1456 95.1688 60.4014 95.1688 61.7799 95.1688H65.7502C67.1289 95.1688 68.3565 96.2923 68.4798 97.6655L69.2163 105.917C69.3388 107.29 70.5274 108.707 71.8586 109.066L85.5049 112.752C86.8353 113.111 87.9292 113.405 87.9354 113.405C87.9415 113.405 89.0349 113.111 90.3659 112.751L104.037 109.057C105.367 108.698 106.557 107.28 106.68 105.907L108.163 89.3759C108.286 88.0027 107.259 86.8792 105.88 86.8792H90.5068C89.1281 86.8792 87.9887 86.8792 87.9738 86.8792C87.9588 86.8792 86.8183 86.8792 85.4396 86.8792H53.3611C51.9823 86.8792 50.7548 85.7553 50.6323 84.3828L46.9948 43.623C46.8724 42.2498 46.6825 40.1243 46.5726 38.8991C46.464 37.6745 47.5019 36.6722 48.8807 36.6722H85.4396C86.8183 36.6722 87.9585 36.6722 87.9738 36.6722C87.989 36.6722 89.1284 36.6722 90.5068 36.6722H127.021C128.4 36.6716 129.438 37.6736 129.329 38.8988Z" fill="#DD512A"/>
</g>
</g>
<defs>
<filter id="filter0_d" x="0" y="0" width="176" height="176" filterUnits="userSpaceOnUse" color-interpolation-filters="sRGB">
<feFlood flood-opacity="0" result="BackgroundImageFix"/>
<feColorMatrix in="SourceAlpha" type="matrix" values="0 0 0 0 0 0 0 0 0 0 0 0 0 0 0 0 0 0 127 0"/>
<feOffset dy="4"/>
<feGaussianBlur stdDeviation="2"/>
<feColorMatrix type="matrix" values="0 0 0 0 0 0 0 0 0 0 0 0 0 0 0 0 0 0 0.25 0"/>
<feBlend mode="normal" in2="BackgroundImageFix" result="effect1_dropShadow"/>
<feBlend mode="normal" in="SourceGraphic" in2="effect1_dropShadow" result="shape"/>
</filter>
<clipPath id="clip0">
<rect x="4" width="168" height="168" rx="20" fill="white"/>
</clipPath>
<clipPath id="clip1">
<rect width="511.997" height="511.997" fill="white" transform="translate(107 -77)"/>
</clipPath>
</defs>
</svg>
