<svg width="485" height="485" viewBox="0 0 485 485" fill="none" xmlns="http://www.w3.org/2000/svg">
<path d="M89.0156 189.906H156.523V393.004H89.0156V189.906Z" fill="#FAFAFA"/>
<path d="M122.324 162.188H122.77C146.32 162.188 160.965 146.586 160.965 127.086C160.52 107.156 146.32 91.9961 123.211 91.9961C100.105 91.9961 85 107.156 85 127.086C85 146.586 99.6797 162.188 122.324 162.188Z" fill="#FAFAFA"/>
<path d="M261.398 393.004V279.574C261.398 273.488 261.863 267.457 263.641 263.117C268.527 250.969 279.617 238.426 298.281 238.426C322.719 238.426 332.477 257.055 332.477 284.344V393H400V276.535C400 214.156 366.691 185.137 322.258 185.137C286.387 185.137 270.371 204.879 261.398 218.684V219.348H260.957C261.074 219.129 261.266 218.906 261.398 218.684V189.906H193.863C194.77 208.957 193.863 393 193.863 393H261.398V393.004Z" fill="#FAFAFA"/>
<path d="M0 0V485H485V0H0ZM455 455H30V30H455V455Z" fill="#FAFAFA"/>
</svg>
