<?xml version="1.0" encoding="utf-8"?>
<!-- Generator: Adobe Illustrator 24.0.1, SVG Export Plug-In . SVG Version: 6.00 Build 0)  -->
<svg version="1.1" id="Camada_1" xmlns="http://www.w3.org/2000/svg" xmlns:xlink="http://www.w3.org/1999/xlink" x="0px" y="0px"
	 viewBox="0 0 260 80" style="enable-background:new 0 0 260 80;" xml:space="preserve">
<style type="text/css">
	.st0{fill:#8257E5;}
</style>
<path class="st0" d="M71.4,0.7H10.2c-4.9,0-8.9,4-8.9,8.9v61c0,4.9,4,8.9,8.9,8.9h61.2c4.9,0,8.9-4,8.9-8.9v-61
	C80.2,4.6,76.2,0.7,71.4,0.7z M26.9,34.6L13,40.1l-1.7,0.4v0.2L13,41l13.9,5.3v6.3L5.1,43v-5l21.8-9.6V34.6z M35.1,58.1h-5.8
	l15.6-40.9h5.8L35.1,58.1z M75.8,43.3L53.5,53v-6.2l14.4-5.5l1.8-0.4v-0.2l-1.8-0.5l-14.4-5.4v-6.2l22.3,9.6V43.3z"/>
<g>
	<path class="st0" d="M110,35.6v4.1H97.7V19.2h4.1v16.4H110z"/>
	<path class="st0" d="M116.4,23.3v4h7.1v4.1h-7.1v4.2h8.2v4.1h-12.3V19.2h12.3v4L116.4,23.3L116.4,23.3z"/>
	<path class="st0" d="M126.8,29.5c0-5.9,4.8-10.7,10.6-10.7s10.7,4.8,10.7,10.7c0,5.8-4.8,10.6-10.7,10.6
		C131.6,40.1,126.8,35.3,126.8,29.5z M143.9,29.5c0-3.6-2.9-6.5-6.5-6.5s-6.5,2.9-6.5,6.5s2.9,6.5,6.5,6.5
		C141,35.9,143.9,33,143.9,29.5z"/>
	<path class="st0" d="M167.2,19.2v20.9H167l-12.1-11.8v11.5h-4.1v-21h0.2l12.1,11.8V19.2H167.2z"/>
	<path class="st0" d="M183.2,36.8H175l-1.3,2.9h-4.4l9.8-21h0.1l9.8,21h-4.5L183.2,36.8z M181.6,33.3l-2.5-5.5l-2.5,5.5H181.6z"/>
	<path class="st0" d="M201.6,39.7l-6.5-9.7v9.7H191V19.2h6.7c3.8,0,7,2.9,7,6.6c0,2.6-1.6,4.9-3.8,5.7l5.8,8.1h-5.1V39.7z
		 M195.1,28.4h2.6c1.4,0,2.6-1.1,2.6-2.6s-1.3-2.6-2.6-2.6h-2.6V28.4z"/>
	<path class="st0" d="M225.2,29.5c0,6.3-4,10.2-10.7,10.2h-6V19.2h6C221.2,19.2,225.2,23.1,225.2,29.5z M221.1,29.5
		c0-3.8-2.5-6.2-6.5-6.2h-1.8v12.3h1.9C218.6,35.6,221.1,33.3,221.1,29.5z"/>
	<path class="st0" d="M227,29.5c0-5.9,4.8-10.7,10.6-10.7s10.7,4.8,10.7,10.7c0,5.8-4.8,10.6-10.7,10.6
		C231.8,40.1,227,35.3,227,29.5z M244.1,29.5c0-3.6-2.9-6.5-6.5-6.5s-6.5,2.9-6.5,6.5s2.9,6.5,6.5,6.5
		C241.2,35.9,244.1,33,244.1,29.5z"/>
	<rect class="rectBackground" width="147.4107" 
		height="68.7917" x="31.2946" y="114.1042" 
		rx="4.5882" ry="3.9565" fill="#2a7fff"/>
	<path class="rectText" d="..." vector-effect="non-scaling-stroke" stroke-width=".470476156" font-size="12" fill="#fff" 
		fill-rule="evenodd" stroke="#fff" stroke-linecap="round"/>
</g>
<g>
	<path class="st0" d="M96.6,61.5V61h1.5V48.5h-1.5V48h9.9v2.7H106v-2.2h-7.4v5.8h6v0.5h-6V61h1.5v0.5H96.6z"/>
	<path class="st0" d="M108.1,61.5V61h1.5V48.5h-1.5V48h5.4c1,0,1.8,0.1,2.4,0.4c0.7,0.3,1.2,0.7,1.5,1.2s0.5,1.2,0.5,2
		s-0.2,1.4-0.6,1.9s-0.9,0.9-1.6,1.2s-1.5,0.4-2.3,0.4H110V61h1.5v0.5H108.1z M110.1,54.6h3.4c1.4,0,2.4-0.3,3-0.9
		c0.6-0.6,1-1.3,1-2.2c0-1-0.3-1.8-1-2.3s-1.6-0.8-2.9-0.8h-3.4L110.1,54.6L110.1,54.6z M117.4,61.5l-2.8-6.7h0.5l2.7,6.2h1.2v0.5
		H117.4z"/>
	<path class="st0" d="M127,61.7c-0.8,0-1.6-0.2-2.3-0.5c-0.7-0.3-1.3-0.8-1.8-1.4c-0.5-0.6-0.9-1.3-1.2-2.2
		c-0.3-0.8-0.4-1.8-0.4-2.8v-0.2c0-1,0.1-2,0.4-2.8s0.7-1.6,1.2-2.2c0.5-0.6,1.1-1.1,1.8-1.4c0.7-0.3,1.5-0.5,2.3-0.5
		s1.6,0.2,2.3,0.5s1.3,0.8,1.8,1.4c0.5,0.6,0.9,1.3,1.2,2.2c0.3,0.8,0.4,1.8,0.4,2.8v0.2c0,1-0.1,2-0.4,2.8
		c-0.3,0.8-0.7,1.6-1.2,2.2c-0.5,0.6-1.1,1.1-1.8,1.4C128.6,61.5,127.8,61.7,127,61.7z M127,61.2c1,0,2-0.3,2.7-0.8
		c0.8-0.5,1.4-1.3,1.8-2.2c0.4-1,0.6-2.1,0.6-3.4v-0.2c0-1.3-0.2-2.4-0.6-3.3c-0.4-1-1-1.7-1.8-2.2s-1.7-0.8-2.7-0.8
		s-1.9,0.3-2.7,0.8c-0.8,0.5-1.4,1.3-1.8,2.2c-0.4,1-0.6,2.1-0.6,3.3v0.2c0,1.3,0.2,2.4,0.6,3.4s1,1.7,1.8,2.2
		C125,60.9,125.9,61.2,127,61.2z"/>
	<path class="st0" d="M134.6,61.5V61h1.5V48.5h-1.5V48h1.5h0.5l8.7,12.6h0.1v-12h-1.5V48h2h1.5v0.5h-1.5v13h-0.5l-8.7-12.6h-0.1V61
		h1.5v0.5H134.6z"/>
	<path class="st0" d="M152.1,61.5V61h1.5V48.5h-4.4v2.2h-0.5V48H159v2.7h-0.5v-2.2h-4.4V61h1.5v0.5H152.1z"/>
	<path class="st0" d="M159.1,55.9v-0.5h4.4v0.5H159.1z"/>
	<path class="st0" d="M165.7,61.5V61h1.5V48.5h-1.5V48h9.5v2.7h-0.5v-2.2h-6.9v5.7h5.8v0.5h-5.8V61h7.2v-2.2h0.5v2.7H165.7z"/>
	<path class="st0" d="M177.4,61.5V61h1.5V48.5h-1.5V48h1.5h0.5l8.7,12.6h0.1v-12h-1.5V48h2h1.5v0.5h-1.5v13h-0.5l-8.7-12.6h-0.1V61
		h1.5v0.5H177.4z"/>
	<path class="st0" d="M191.5,61.5V61h1.5V48.5h-1.5V48h1.5h3.7c1.1,0,2.1,0.3,3,0.9c0.9,0.6,1.5,1.4,2,2.4s0.7,2.2,0.7,3.5V55
		c0,1.3-0.2,2.4-0.7,3.5s-1.2,1.8-2,2.4c-0.9,0.6-1.8,0.9-3,0.9h-5.2V61.5z M193.5,61h3.2c1,0,1.9-0.3,2.7-0.8s1.4-1.3,1.9-2.2
		s0.7-2,0.7-3.2v-0.2c0-1.2-0.2-2.2-0.7-3.1c-0.5-0.9-1.1-1.7-1.9-2.2c-0.8-0.5-1.7-0.8-2.7-0.8h-3.2V61z"/>
	<path class="st0" d="M208.9,61.5V61h1.5V48.5h-1.5V48h1.5h3.7c1.1,0,2.1,0.3,3,0.9c0.9,0.6,1.5,1.4,2,2.4s0.7,2.2,0.7,3.5V55
		c0,1.3-0.2,2.4-0.7,3.5s-1.2,1.8-2,2.4c-0.9,0.6-1.8,0.9-3,0.9h-5.2V61.5z M210.9,61h3.2c1,0,1.9-0.3,2.7-0.8s1.4-1.3,1.9-2.2
		s0.7-2,0.7-3.2v-0.2c0-1.2-0.2-2.2-0.7-3.1c-0.5-0.9-1.1-1.7-1.9-2.2c-0.8-0.5-1.7-0.8-2.7-0.8h-3.2V61z"/>
	<path class="st0" d="M221.8,61.5V61h1.5V48.5h-1.5V48h9.5v2.7h-0.5v-2.2h-6.9v5.7h5.8v0.5h-5.8V61h7.2v-2.2h0.5v2.7H221.8z"/>
	<path class="st0" d="M239.3,61.5l-4.9-13h-1V48h3v0.5H235l4.4,11.7l0.2,0.7h0.1l0.2-0.7l4.4-11.7h-1.4V48h3v0.5h-1l-4.9,13H239.3z"
		/>
</g>
</svg>
